<svg xmlns="http://www.w3.org/2000/svg" viewBox="0 0 200 200" width="200" height="200">
  <defs>
    <radialGradient id="globeGrad" cx="40%" cy="40%" r="60%">
      <stop offset="0%" stop-color="#4A90D9"/>
      <stop offset="100%" stop-color="#1E5AA8"/>
    </radialGradient>
    <radialGradient id="owlGrad" cx="50%" cy="30%" r="70%">
      <stop offset="0%" stop-color="#D4A574"/>
      <stop offset="100%" stop-color="#8B5A2B"/>
    </radialGradient>
  </defs>
  
  <circle cx="100" cy="100" r="70" fill="url(#globeGrad)" stroke="#1E4088" stroke-width="2"/>
  <ellipse cx="100" cy="100" rx="70" ry="20" fill="none" stroke="#6BB3E8" stroke-width="1" opacity="0.5"/>
  <ellipse cx="100" cy="100" rx="70" ry="40" fill="none" stroke="#6BB3E8" stroke-width="1" opacity="0.5"/>
  <line x1="30" y1="100" x2="170" y2="100" stroke="#6BB3E8" stroke-width="1" opacity="0.5"/>
  <ellipse cx="100" cy="100" rx="20" ry="70" fill="none" stroke="#6BB3E8" stroke-width="1" opacity="0.5"/>
  <ellipse cx="100" cy="100" rx="40" ry="70" fill="none" stroke="#6BB3E8" stroke-width="1" opacity="0.5"/>
  <ellipse cx="100" cy="100" rx="60" ry="70" fill="none" stroke="#6BB3E8" stroke-width="1" opacity="0.5"/>
  
  <ellipse cx="100" cy="85" rx="25" ry="30" fill="url(#owlGrad)"/>
  <ellipse cx="100" cy="90" rx="18" ry="22" fill="#F5DEB3"/>
  <circle cx="100" cy="55" r="22" fill="url(#owlGrad)"/>
  
  <polygon points="82,38 78,25 90,35" fill="#8B5A2B"/>
  <polygon points="118,38 122,25 110,35" fill="#8B5A2B"/>
  
  <circle cx="90" cy="52" r="10" fill="#FFFEF0"/>
  <circle cx="110" cy="52" r="10" fill="#FFFEF0"/>
  <circle cx="90" cy="52" r="6" fill="#2D2D2D"/>
  <circle cx="110" cy="52" r="6" fill="#2D2D2D"/>
  <circle cx="92" cy="50" r="2" fill="#FFF"/>
  <circle cx="112" cy="50" r="2" fill="#FFF"/>
  
  <polygon points="100,58 95,65 105,65" fill="#FF8C00"/>
  
  <ellipse cx="75" cy="85" rx="8" ry="18" fill="#6B4423" transform="rotate(-15, 75, 85)"/>
  <ellipse cx="125" cy="85" rx="8" ry="18" fill="#6B4423" transform="rotate(15, 125, 85)"/>
  
  <g fill="#FF8C00">
    <circle cx="92" cy="115" r="3"/>
    <circle cx="100" cy="117" r="3"/>
    <circle cx="108" cy="115" r="3"/>
  </g>
  <rect x="85" y="115" width="30" height="6" rx="3" fill="#6B4423"/>
</svg>
